# xmcd
#
# Track frame offsets:
#	150
#	8000
#	20601
#	32730
#	45906
#	57714
#	72965
#	96486
#	114939
#	130036
#	143578
#	156479
#	172227
#	189115
#	202366
#	226857
#	240738
#	254370
#	264674
#	286131
#
# Disc length: 4112
#
# Revision: 1
# Processed by: cddbd v1.5.1PL0 Copyright (c) Steve Scherf et al.
# Submitted via: CDex 1.51
# Normalized: r0:TDELIM( - )
#
DISCID=1e100e14
DTITLE=Various Artist - Mega Jazz  - CD 4
DYEAR=1999
DGENRE=Jazz
TTITLE0=Louis Armstrong - When the saints go marchin' in
TTITLE1=Billie Holiday - ST. Louis blues
TTITLE2=Carmen Mc Rae - Straighten up and fly right
TTITLE3=Dizzy Gillespie - Blue moon
TTITLE4=Ella Fitzgerald - A tisket a basket
TTITLE5=Nat King Cole Trio - Embraceable you
TTITLE6=Wayne Shorter - I didn't know what time it was
TTITLE7=Sidney Bechet - Summertime
TTITLE8=Glenn Miller - Moonlight serenade
TTITLE9=Ella Fitzgerald - My man
TTITLE10=Duke Ellington - Take the A-train
TTITLE11=Count Basie - Vine street rumble
TTITLE12=Clifford Jordan - Bridgework
TTITLE13=Benny Goodman - Airmail special
TTITLE14=Bill Evans - What are you doing the rest of your life
TTITLE15=Django Reinhardt and Stephane Grappelli - The sheik of Araby
TTITLE16=Lionel Hampton and his orchestra - Stompology
TTITLE17=Woody Herman - Yeah man (Amen)
TTITLE18=Bill Evans - Autumn leaves
TTITLE19=Charlie Parker - Moose the mooche
EXTD=YEAR: 1999
EXTT0=
EXTT1=
EXTT2=
EXTT3=
EXTT4=
EXTT5=
EXTT6=
EXTT7=
EXTT8=
EXTT9=
EXTT10=
EXTT11=
EXTT12=
EXTT13=
EXTT14=
EXTT15=
EXTT16=
EXTT17=
EXTT18=
EXTT19=
PLAYORDER=
